<svg width="20" height="18" viewBox="0 0 20 18" fill="none" xmlns="http://www.w3.org/2000/svg">
<path d="M0.833313 2.33331V7.33331M0.833313 7.33331H5.83331M0.833313 7.33331L4.69998 3.69998C5.5956 2.80391 6.70362 2.14932 7.92065 1.79729C9.13768 1.44527 10.4241 1.40727 11.6597 1.68686C12.8954 1.96645 14.0401 2.55451 14.9871 3.39616C15.934 4.23782 16.6523 5.30564 17.075 6.49998M19.1666 15.6666V10.6666M19.1666 10.6666H14.1666M19.1666 10.6666L15.3 14.3C14.4044 15.1961 13.2963 15.8506 12.0793 16.2027C10.8623 16.5547 9.5759 16.5927 8.34022 16.3131C7.10453 16.0335 5.95981 15.4455 5.01287 14.6038C4.06592 13.7621 3.34762 12.6943 2.92498 11.5" stroke="#F2F4F7" stroke-width="1.3" stroke-linecap="round" stroke-linejoin="round"/>
</svg>
